# xmcd
#
# Track frame offsets: 
#        150
#        18535
#        34026
#        50305
#        68494
#        87977
#        104501
#        123927
#        139188
#        159692
#        179776
#
# Disc length: 2700 seconds
#
# Revision: 0
# Processed by: cddbd v1.5.2PL0 Copyright (c) Steve Scherf et al.
# Submitted via: ExactAudioCopyFreeDBPlugin 1.0
#
DISCID=950a8a0b
DTITLE=Kenny Lattimore - Vulnerable
DYEAR=2017
DGENRE=R&B/Soul
TTITLE0=Vulnerable
TTITLE1=Push
TTITLE2=Stay on My Mind
TTITLE3=Perfection
TTITLE4=Curtains Closed
TTITLE5=Priceless
TTITLE6=Deserve
TTITLE7=Falling for You
TTITLE8=One More Night (feat. Gerald Albright)
TTITLE9=More Than Life
TTITLE10=Never Too Busy (Live)
EXTD=
EXTT0=
EXTT1=
EXTT2=
EXTT3=
EXTT4=
EXTT5=
EXTT6=
EXTT7=
EXTT8=
EXTT9=
EXTT10=
PLAYORDER=
